<svg width="40" height="42" viewBox="0 0 40 42" fill="none" xmlns="http://www.w3.org/2000/svg">
<g clip-path="url(#clip0_54_97)">
<path d="M36.25 21C36.25 16.6172 34.538 12.4139 31.4905 9.31475C28.443 6.21564 24.3098 4.47457 20 4.47457C15.6902 4.47457 11.557 6.21564 8.50951 9.31475C5.46205 12.4139 3.75 16.6172 3.75 21C3.75 25.3828 5.46205 29.5861 8.50951 32.6852C11.557 35.7844 15.6902 37.5254 20 37.5254C24.3098 37.5254 28.443 35.7844 31.4905 32.6852C34.538 29.5861 36.25 25.3828 36.25 21ZM0 21C0 15.6058 2.10714 10.4325 5.85786 6.61816C9.60859 2.80386 14.6957 0.661011 20 0.661011C25.3043 0.661011 30.3914 2.80386 34.1421 6.61816C37.8929 10.4325 40 15.6058 40 21C40 26.3942 37.8929 31.5675 34.1421 35.3818C30.3914 39.1961 25.3043 41.339 20 41.339C14.6957 41.339 9.60859 39.1961 5.85786 35.3818C2.10714 31.5675 0 26.3942 0 21ZM14.7109 12.348C15.3047 12.0143 16.0234 12.0222 16.6094 12.3877L27.8594 19.3792C28.4141 19.7288 28.7578 20.3406 28.7578 21.0079C28.7578 21.6753 28.4141 22.2871 27.8594 22.6366L16.6094 29.6282C16.0312 29.9857 15.3047 30.0016 14.7109 29.6679C14.1172 29.3342 13.75 28.6986 13.75 28.0074V14.0085C13.75 13.3173 14.1172 12.6817 14.7109 12.348Z" fill="#1BCBF2"/>
</g>
<defs>
<clipPath id="clip0_54_97">
<rect width="40" height="40.678" fill="white" transform="translate(0 0.661011)"/>
</clipPath>
</defs>
</svg>
