<svg width="41" height="32" viewBox="0 0 41 32" fill="none" xmlns="http://www.w3.org/2000/svg">
<path d="M36.2513 1.28146C36.9817 0.650407 38.0179 0.490251 38.9084 0.887624C39.7988 1.285 40.37 2.15721 40.3883 3.12579L40.8588 28.1214C40.8771 29.0899 40.3313 29.9832 39.4642 30.4136C38.5972 30.8441 37.5558 30.7309 36.7942 30.1201L23.188 19.2102L23.1266 15.953L23.0653 12.6957L36.2513 1.28146ZM20.4859 8.50135L20.6271 16L20.8153 25.9982L20.8624 28.4978C20.8806 29.4664 20.3348 30.3596 19.4678 30.7901C18.6007 31.2205 17.5593 31.1073 16.7977 30.4965L1.56508 18.2811C0.985897 17.8153 0.644596 17.1185 0.630626 16.3765C0.616657 15.6344 0.931489 14.9252 1.49273 14.438L16.2548 1.6579C16.9852 1.02685 18.0215 0.866695 18.9119 1.26407C19.8024 1.66144 20.3736 2.53366 20.3918 3.50223L20.4859 8.50135Z" fill="#1BCBF2"/>
</svg>
