<svg width="42" height="31" viewBox="0 0 42 31" fill="none" xmlns="http://www.w3.org/2000/svg">
<path d="M0.260864 3C0.260864 1.61719 1.42663 0.5 2.86956 0.5H34.1739C35.6168 0.5 36.7826 1.61719 36.7826 3C36.7826 4.38281 35.6168 5.5 34.1739 5.5H2.86956C1.42663 5.5 0.260864 4.38281 0.260864 3ZM5.47826 15.5C5.47826 14.1172 6.64402 13 8.08695 13H39.3913C40.8342 13 42 14.1172 42 15.5C42 16.8828 40.8342 18 39.3913 18H8.08695C6.64402 18 5.47826 16.8828 5.47826 15.5ZM36.7826 28C36.7826 29.3828 35.6168 30.5 34.1739 30.5H2.86956C1.42663 30.5 0.260864 29.3828 0.260864 28C0.260864 26.6172 1.42663 25.5 2.86956 25.5H34.1739C35.6168 25.5 36.7826 26.6172 36.7826 28Z" fill="#1BCBF2"/>
</svg>
